<?xml version="1.0" encoding="utf-8"?>
<!-- Generator: Adobe Illustrator 28.3.0, SVG Export Plug-In . SVG Version: 6.00 Build 0)  -->
<svg version="1.0" id="图层_1" xmlns="http://www.w3.org/2000/svg" xmlns:xlink="http://www.w3.org/1999/xlink" x="0px" y="0px"
	 viewBox="0 0 4.33 4.58" style="enable-background:new 0 0 4.33 4.58;" xml:space="preserve">
<style type="text/css">
	.st0{fill:#1C1D1D;}
</style>
<g>
	<path class="st0" d="M2.18,3.89c-0.02,0-0.02,0-0.04,0C2,3.89,1.92,3.81,1.92,3.72c-0.06-1.3-0.02-1.95-0.1-3.25
		C1.82,0.37,2,0.3,2.15,0.3c0.02,0,0.02,0,0.04,0c0.15,0,0.33,0.08,0.32,0.17c-0.08,1.3-0.03,1.95-0.1,3.25
		C2.41,3.81,2.33,3.89,2.18,3.89z"/>
</g>
<circle class="st0" cx="2.17" cy="4.3" r="0.28"/>
<g>
	<path class="st0" d="M3.69,0.86c0.06,0.07,0.13,0.15,0.18,0.23V0.84C3.81,0.77,3.76,0.69,3.69,0.63V0.86z"/>
	<path class="st0" d="M0.94,3.75C0.9,3.73,0.87,3.7,0.84,3.67v0.2C0.87,3.89,0.91,3.9,0.94,3.92V3.75z"/>
	<path class="st0" d="M0.42,3.44c0.09,0.12,0.2,0.23,0.32,0.33V3.56C0.62,3.43,0.51,3.3,0.42,3.14V3.44z"/>
	<path class="st0" d="M3.5,0.67c0.03,0.02,0.06,0.04,0.09,0.07V0.54C3.56,0.52,3.53,0.5,3.5,0.47V0.67z"/>
	<path class="st0" d="M3.59,3.56C3.56,3.59,3.53,3.63,3.5,3.66v0.2C3.53,3.83,3.56,3.8,3.59,3.77V3.56z"/>
	<path class="st0" d="M3.87,3.22C3.82,3.31,3.75,3.38,3.69,3.45v0.21C3.75,3.6,3.81,3.55,3.87,3.48V3.22z"/>
	<path class="st0" d="M4,1.02v0.31c0.12,0.25,0.18,0.53,0.18,0.83C4.18,2.45,4.1,2.71,4,2.96v0.33c0.2-0.33,0.33-0.7,0.33-1.12
		C4.33,1.74,4.21,1.36,4,1.02z"/>
	<path class="st0" d="M3.4,0.39C3.05,0.15,2.62,0,2.17,0c-0.41,0-0.8,0.12-1.13,0.33v0.17c0.32-0.22,0.71-0.35,1.13-0.35
		c0.47,0,0.89,0.17,1.23,0.43V0.39z"/>
	<path class="st0" d="M3.4,3.75C3.25,3.86,3.1,3.96,2.93,4.03v0.16C3.1,4.12,3.25,4.03,3.4,3.92V3.75z"/>
	<path class="st0" d="M1.04,3.98c0.12,0.07,0.23,0.16,0.37,0.21V4.03C1.27,3.98,1.15,3.89,1.04,3.81V3.98z"/>
	<path class="st0" d="M0.42,1.17c0.09-0.16,0.19-0.3,0.32-0.43V0.55c-0.12,0.1-0.23,0.22-0.32,0.35V1.17z"/>
	<path class="st0" d="M0.29,2.87C0.21,2.65,0.15,2.42,0.15,2.17c0-0.26,0.05-0.5,0.14-0.73V1.1C0.11,1.42,0,1.78,0,2.17
		C0,2.55,0.12,2.89,0.29,3.2V2.87z"/>
	<path class="st0" d="M0.84,0.46v0.19C0.87,0.63,0.9,0.6,0.94,0.58V0.39C0.9,0.41,0.87,0.44,0.84,0.46z"/>
</g>
</svg>
