<?xml version="1.0" encoding="utf-8"?>
<!-- Generator: Adobe Illustrator 28.3.0, SVG Export Plug-In . SVG Version: 6.00 Build 0)  -->
<svg version="1.0" id="图层_1" xmlns="http://www.w3.org/2000/svg" xmlns:xlink="http://www.w3.org/1999/xlink" x="0px" y="0px"
	 viewBox="0 0 15 15" style="enable-background:new 0 0 15 15;" xml:space="preserve">
<style type="text/css">
	.st0{fill:url(#SVGID_1_);}
	.st1{fill:url(#SVGID_00000043443075394275569750000007314067278501857972_);}
	.st2{fill:url(#SVGID_00000120554208765295855400000005158777301850437789_);}
</style>
<linearGradient id="SVGID_1_" gradientUnits="userSpaceOnUse" x1="5.5623" y1="6.9257" x2="9.6444" y2="8.1227">
	<stop  offset="0.274" style="stop-color:#FFFFFF"/>
	<stop  offset="0.3425" style="stop-color:#FCFCFC;stop-opacity:0.9056"/>
	<stop  offset="0.433" style="stop-color:#F1F1F1;stop-opacity:0.781"/>
	<stop  offset="0.5359" style="stop-color:#DDDEDE;stop-opacity:0.6392"/>
	<stop  offset="0.648" style="stop-color:#C0C0C1;stop-opacity:0.4849"/>
	<stop  offset="0.7674" style="stop-color:#969797;stop-opacity:0.3204"/>
	<stop  offset="0.891" style="stop-color:#605F5F;stop-opacity:0.1501"/>
	<stop  offset="1" style="stop-color:#000000;stop-opacity:0"/>
</linearGradient>
<path class="st0" d="M5.95,12.89L5.95,12.89c-0.31-0.09-0.48-0.41-0.39-0.72l2.83-9.66C8.47,2.2,8.79,2.03,9.1,2.11l0,0
	C9.4,2.2,9.58,2.52,9.49,2.83l-2.83,9.66C6.57,12.8,6.25,12.97,5.95,12.89z"/>
<linearGradient id="SVGID_00000149353287012560457340000001335244476507047066_" gradientUnits="userSpaceOnUse" x1="2.9044" y1="5.9393" x2="6.4848" y2="6.7771">
	<stop  offset="0.6402" style="stop-color:#FFFFFF"/>
	<stop  offset="0.6708" style="stop-color:#FAFAFA;stop-opacity:0.9151"/>
	<stop  offset="0.7202" style="stop-color:#EAEAEA;stop-opacity:0.7776"/>
	<stop  offset="0.7825" style="stop-color:#CDCDCE;stop-opacity:0.6046"/>
	<stop  offset="0.855" style="stop-color:#A1A1A2;stop-opacity:0.4031"/>
	<stop  offset="0.9351" style="stop-color:#636161;stop-opacity:0.1803"/>
	<stop  offset="1" style="stop-color:#000000;stop-opacity:0"/>
</linearGradient>
<path style="fill:url(#SVGID_00000149353287012560457340000001335244476507047066_);" d="M6.14,3.37c-0.19,0-0.34,0.15-0.34,0.34
	v2.37H3.5V3.72c0-0.19-0.15-0.34-0.34-0.34S2.81,3.53,2.81,3.72v5.26c0,0.19,0.15,0.34,0.34,0.34S3.5,9.17,3.5,8.98V6.61h2.3v2.37
	c0,0.19,0.15,0.34,0.34,0.34c0.19,0,0.34-0.15,0.34-0.34V3.72C6.49,3.53,6.33,3.37,6.14,3.37z"/>
<g>
	
		<linearGradient id="SVGID_00000054241030742961780550000016520043790564897192_" gradientUnits="userSpaceOnUse" x1="8.4471" y1="8.157" x2="13.6537" y2="9.54">
		<stop  offset="0.0503" style="stop-color:#000000;stop-opacity:0"/>
		<stop  offset="0.1403" style="stop-color:#6D6D6D;stop-opacity:0.2113"/>
		<stop  offset="0.2304" style="stop-color:#A7A8A8;stop-opacity:0.4227"/>
		<stop  offset="0.3121" style="stop-color:#D0D1D1;stop-opacity:0.6143"/>
		<stop  offset="0.3829" style="stop-color:#EBEBEC;stop-opacity:0.7804"/>
		<stop  offset="0.4401" style="stop-color:#FAFBFB;stop-opacity:0.9146"/>
		<stop  offset="0.4765" style="stop-color:#FFFFFF"/>
	</linearGradient>
	<path style="fill:url(#SVGID_00000054241030742961780550000016520043790564897192_);" d="M8.88,11.31v-5.3
		c0-0.14,0.11-0.25,0.25-0.25h1.75c0.45,0,0.79,0.03,1.03,0.08c0.33,0.08,0.62,0.21,0.85,0.42c0.31,0.26,0.53,0.59,0.69,0.99
		c0.15,0.4,0.23,0.86,0.23,1.38c0,0.44-0.05,0.83-0.15,1.17s-0.23,0.62-0.4,0.84c-0.16,0.22-0.34,0.4-0.53,0.53
		c-0.19,0.13-0.42,0.22-0.69,0.29c-0.27,0.07-0.58,0.1-0.93,0.1H9.13C8.99,11.56,8.88,11.45,8.88,11.31z M9.65,10.87h1.24
		c0.38,0,0.68-0.04,0.9-0.11c0.22-0.07,0.39-0.17,0.52-0.3c0.18-0.18,0.32-0.43,0.42-0.73s0.15-0.68,0.15-1.12
		c0-0.61-0.1-1.07-0.3-1.4c-0.2-0.33-0.44-0.54-0.72-0.65c-0.21-0.08-0.54-0.12-0.99-0.12H9.65V10.87z"/>
</g>
</svg>
