<?xml version="1.0" encoding="utf-8"?>
<!-- Generator: Adobe Illustrator 28.3.0, SVG Export Plug-In . SVG Version: 6.00 Build 0)  -->
<svg version="1.0" id="图层_1" xmlns="http://www.w3.org/2000/svg" xmlns:xlink="http://www.w3.org/1999/xlink" x="0px" y="0px"
	 viewBox="0 0 8.2 8.21" style="enable-background:new 0 0 8.2 8.21;" xml:space="preserve">
<style type="text/css">
	.st0{fill:none;stroke:#358ACB;stroke-width:0.25;stroke-miterlimit:10;}
	.st1{fill:#FFFFFF;}
</style>
<circle class="st0" cx="4.1" cy="4.1" r="3.97"/>
<path class="st1" d="M6.24,4.53H1.97c-0.23,0-0.42-0.19-0.42-0.42v0c0-0.23,0.19-0.42,0.42-0.42h4.26c0.23,0,0.42,0.19,0.42,0.42v0
	C6.66,4.34,6.47,4.53,6.24,4.53z"/>
<path class="st1" d="M3.68,6.24V1.97c0-0.23,0.19-0.42,0.42-0.42h0c0.23,0,0.42,0.19,0.42,0.42v4.26c0,0.23-0.19,0.42-0.42,0.42h0
	C3.87,6.66,3.68,6.47,3.68,6.24z"/>
</svg>
