<?xml version="1.0" encoding="utf-8"?>
<!-- Generator: Adobe Illustrator 28.3.0, SVG Export Plug-In . SVG Version: 6.00 Build 0)  -->
<svg version="1.1" id="图层_1" xmlns="http://www.w3.org/2000/svg" xmlns:xlink="http://www.w3.org/1999/xlink" x="0px" y="0px"
	 viewBox="0 0 472.9 134.9" style="enable-background:new 0 0 472.9 134.9;" xml:space="preserve">
<style type="text/css">
	.st0{fill:url(#SVGID_1_);}
	.st1{fill:url(#SVGID_00000092449644082865033170000010781027423176803238_);}
	.st2{fill:url(#SVGID_00000098183691813621575050000015437636413985320878_);}
	.st3{fill:url(#SVGID_00000176015439960403313220000011526914081138550193_);}
	.st4{fill:url(#SVGID_00000054966583730288053660000013419807334502204070_);}
	.st5{fill:#90C01F;}
	.st6{fill:#377FC3;}
	.st7{fill:#68BA63;}
	.st8{fill:#15843B;}
	.st9{fill:#2851A2;}
	.st10{fill:#81C03A;}
	.st11{fill:#68C4CB;}
</style>
<g>
	<g>
		
			<linearGradient id="SVGID_1_" gradientUnits="userSpaceOnUse" x1="355.8422" y1="51.2131" x2="534.559" y2="48.05" gradientTransform="matrix(1 0 0 -1 0 135.89)">
			<stop  offset="0.2574" style="stop-color:#FFFFFF;stop-opacity:0"/>
			<stop  offset="0.2587" style="stop-color:#FDFFFE;stop-opacity:4.551009e-03"/>
			<stop  offset="0.3763" style="stop-color:#64D693;stop-opacity:0.4051"/>
			<stop  offset="0.4274" style="stop-color:#27C668;stop-opacity:0.579"/>
			<stop  offset="0.4651" style="stop-color:#1EC462;stop-opacity:0.7039"/>
			<stop  offset="0.5545" style="stop-color:#0DBF55"/>
		</linearGradient>
		<path class="st0" d="M467.8,132.1h-12.4V89.2h-30.7v42.9h-12.4V40.2h12.4v38.7h30.7V40.2h12.4V132.1z"/>
	</g>
</g>
<g>
	<g>
		
			<linearGradient id="SVGID_00000053524564353512463240000007936641400438397867_" gradientUnits="userSpaceOnUse" x1="310.3054" y1="51.4486" x2="489.0222" y2="48.2855" gradientTransform="matrix(1 0 0 -1 0 135.89)">
			<stop  offset="0.3412" style="stop-color:#FFFFFF;stop-opacity:0"/>
			<stop  offset="0.3451" style="stop-color:#F7FAFD;stop-opacity:2.893925e-02"/>
			<stop  offset="0.3942" style="stop-color:#94BCE4;stop-opacity:0.3927"/>
			<stop  offset="0.4339" style="stop-color:#4B8ED1;stop-opacity:0.6862"/>
			<stop  offset="0.4621" style="stop-color:#1D72C5;stop-opacity:0.8951"/>
			<stop  offset="0.4762" style="stop-color:#0C67C1"/>
		</linearGradient>
		<path style="fill:url(#SVGID_00000053524564353512463240000007936641400438397867_);" d="M422.3,50.4h-21.5V132h-12.4V50.4H367
			V40.2h55.3V50.4z"/>
	</g>
</g>
<g>
	<g>
		
			<linearGradient id="SVGID_00000141425721424021464650000015570655516563955595_" gradientUnits="userSpaceOnUse" x1="264.756" y1="51.2765" x2="443.4728" y2="48.1134" gradientTransform="matrix(1 0 0 -1 0 135.89)">
			<stop  offset="0.3077" style="stop-color:#FFFFFF;stop-opacity:0"/>
			<stop  offset="0.314" style="stop-color:#F4FBF7;stop-opacity:3.902197e-02"/>
			<stop  offset="0.3727" style="stop-color:#91DCAF;stop-opacity:0.399"/>
			<stop  offset="0.42" style="stop-color:#48C67A;stop-opacity:0.6894"/>
			<stop  offset="0.4537" style="stop-color:#1AB75A;stop-opacity:0.8962"/>
			<stop  offset="0.4707" style="stop-color:#09B24D"/>
		</linearGradient>
		<path style="fill:url(#SVGID_00000141425721424021464650000015570655516563955595_);" d="M380,131.8H367L347.7,92h-14v39.7h-12.4
			V40h26.8c8.6,0,15.6,2,20.9,6.1s8,10.9,8,20.1c0,7.1-1.8,12.7-5.3,16.7s-7.7,6.4-12.4,7.5L380,131.8z M364.9,66.3
			c0-5-1.5-8.9-4.5-11.9c-3-2.9-7.9-4.3-14.8-4.3h-11.9v31.7h15.1c4.3,0,8-1.2,11.3-3.5C363.3,76.1,364.9,72,364.9,66.3z"/>
	</g>
</g>
<g>
	<g>
		
			<linearGradient id="SVGID_00000160176857269530586020000009029280978289963675_" gradientUnits="userSpaceOnUse" x1="213.4837" y1="51.7828" x2="392.2005" y2="48.6197" gradientTransform="matrix(1 0 0 -1 0 135.89)">
			<stop  offset="0.3209" style="stop-color:#FFFFFF;stop-opacity:0"/>
			<stop  offset="0.3266" style="stop-color:#F7FAFD;stop-opacity:2.893925e-02"/>
			<stop  offset="0.3994" style="stop-color:#94BCE4;stop-opacity:0.3927"/>
			<stop  offset="0.4581" style="stop-color:#4B8ED1;stop-opacity:0.6862"/>
			<stop  offset="0.4999" style="stop-color:#1D72C5;stop-opacity:0.8951"/>
			<stop  offset="0.5209" style="stop-color:#0C67C1"/>
		</linearGradient>
		<path style="fill:url(#SVGID_00000160176857269530586020000009029280978289963675_);" d="M330.2,131.8h-12.8l-7.5-28.5h-23.7
			l-7.5,28.5h-12.9l26.8-92.9h10.8L330.2,131.8z M307.2,93.1l-8.6-32.8h-1.1l-8.6,32.8H307.2z"/>
	</g>
</g>
<g>
	<g>
		
			<linearGradient id="SVGID_00000020386829653403218440000015247336881109427844_" gradientUnits="userSpaceOnUse" x1="164.4283" y1="51.4817" x2="343.1452" y2="48.3186" gradientTransform="matrix(1 0 0 -1 0 135.89)">
			<stop  offset="0.2669" style="stop-color:#FFFFFF;stop-opacity:0"/>
			<stop  offset="0.2752" style="stop-color:#F7FAFD;stop-opacity:2.893925e-02"/>
			<stop  offset="0.3798" style="stop-color:#94BCE4;stop-opacity:0.3927"/>
			<stop  offset="0.4642" style="stop-color:#4B8ED1;stop-opacity:0.6862"/>
			<stop  offset="0.5243" style="stop-color:#1D72C5;stop-opacity:0.8951"/>
			<stop  offset="0.5545" style="stop-color:#0C67C1"/>
		</linearGradient>
		<path style="fill:url(#SVGID_00000020386829653403218440000015247336881109427844_);" d="M277.5,131.8h-54.8V40h52.1v10.2h-39.7
			v28.5h36.5V89h-36.5v32.8h42.4V131.8z"/>
	</g>
</g>
<path class="st5" d="M134.2,75.3c0.3-2,0.5-4.1,0.6-6.2c-1.3,1.2-2.6,2.5-3.9,3.7C131.9,73.6,133,74.5,134.2,75.3z"/>
<path class="st6" d="M101.9,9.3c-4.3,2.3-8.8,4.2-13.5,5.9c13.2,19.2,24.7,42.4,42.4,56.5c1.3-1.2,2.6-2.5,3.9-3.7
	c0.1-1,0.1-2,0.1-2.9C134.8,41.1,121.5,20.2,101.9,9.3z"/>
<path class="st7" d="M76.6,0c3.5,3.4,6.7,7.3,9.6,11.7c0.4,0.6,0.8,1.2,1.2,1.8c4.7-1.6,9.2-3.6,13.5-5.9C93.5,3.5,85.3,0.9,76.6,0z
	"/>
<path class="st8" d="M0.5,69.1C0.5,75.2,1.4,81,3,86.6c1.4-2.6,2.8-5.2,4.2-7.8C5.4,75,3.3,71.5,0.5,68.4
	C0.5,68.6,0.5,68.9,0.5,69.1z"/>
<path class="st6" d="M28.3,30.3c-3.1,0.7-6.1,1.4-9.1,2.2c-2.9,0.8-5.7,1.6-8.4,2.6C5,44.5,1.6,55.5,1.5,67.4
	c2.8,3.1,4.9,6.6,6.7,10.4c7.5-13.7,15.2-27.5,19-42.3C27.6,33.7,28,32,28.3,30.3z"/>
<path class="st9" d="M18.3,110.7c7.6,9.6,17.9,16.9,29.8,20.8c3.5-3.2,7.2-6,11.1-8.2c-12.8-6.1-27.6-16.5-41.5-17.5
	C17.9,107.4,18.1,109,18.3,110.7z"/>
<path class="st7" d="M70.2,134.8c6.3,0,12.5-0.9,18.2-2.7c-7.8-1.9-15.3-4.4-22.2-6.7c-1.6-0.6-3.3-1.4-5-2.2
	c-3.9,2.3-7.6,5-11.1,8.2C56.4,133.6,63.1,134.8,70.2,134.8z"/>
<path class="st5" d="M113.8,107.2c0.1,2.5,0.6,5.1,1.5,7.8c2.9-2.8,5.6-5.9,8-9.3C120.1,106.2,117,106.7,113.8,107.2z"/>
<path class="st6" d="M66.2,124.4c6.9,2.3,14.5,4.8,22.2,6.7c9.8-2.9,18.7-8.2,25.9-15.2c-0.9-2.7-1.4-5.3-1.5-7.8
	c-18.1,2.8-36.3,5.2-51.7,14.1C62.9,123.1,64.5,123.8,66.2,124.4z"/>
<path class="st9" d="M130.8,74.8c-9.5,9.3-17.5,19.4-17,31.4c3.2-0.5,6.3-1,9.5-1.5c5.6-8,9.4-17.3,10.9-27.4
	C133,76.5,131.9,75.6,130.8,74.8z"/>
<path class="st10" d="M43.1,26.7c-4.3,0.8-8.6,1.6-12.8,2.5c-0.3,1.7-0.7,3.4-1.1,5.2c-0.4,1.4-0.8,2.8-1.2,4.2
	C31.5,33.1,37,29.1,43.1,26.7z"/>
<path class="st10" d="M21.6,55.9c-3.5,7.4-7.4,14.6-11.4,21.8c3.5,7.6,5.3,16.2,6.5,25.1c6.5,0.5,13.3,3,19.9,6.2
	C22.8,95.7,18.8,74.5,21.6,55.9z"/>
<path class="st8" d="M118.5,86.9c3-4.6,7-9,11.3-13.2c-5.3-4.2-10-9.2-14.3-14.7C119.4,67.8,120.6,77.8,118.5,86.9z"/>
<path class="st11" d="M106.9,107.1c2-0.3,3.9-0.6,5.9-0.9c-0.1-2.1,0.1-4.1,0.5-6.1C111.6,102.6,109.4,105,106.9,107.1z"/>
<path class="st6" d="M13.8,105.7c1.1,1.7,2.3,3.3,3.5,4.9c-0.2-1.6-0.4-3.3-0.6-4.9C15.7,105.7,14.7,105.7,13.8,105.7z"/>
<path class="st5" d="M4.9,87.6c1.8,6.1,4.4,11.9,7.8,17.1c1,0,1.9,0,2.9,0.1c-1.2-8.9-3-17.5-6.5-25.1C7.8,82.3,6.3,85,4.9,87.6z"/>
<path class="st8" d="M30.1,13.9C22.7,19,16.4,25.6,11.8,33.3c2.7-1,5.5-1.8,8.4-2.6c3-0.8,6.1-1.5,9.1-2.2
	C30.2,23.5,30.3,18.6,30.1,13.9z"/>
<path class="st6" d="M85.4,14.5c-0.4-0.6-0.8-1.2-1.2-1.8C81.3,8.3,78.1,4.4,74.6,1c-2.1-0.2-4.2-0.3-6.4-0.3
	c-13.4,0-25.8,4.1-36.1,11.2c0.2,4.8,0.1,9.6-0.8,14.6C49.2,22.6,68.3,20.4,85.4,14.5z"/>
<path class="st8" d="M201.4,64.8h17.4c-3.4-7.2-8.4-13.3-14.6-17.7c-3,4.1-6.3,8.1-9.1,12.4C197.5,60.9,199.6,62.7,201.4,64.8z"/>
<path class="st10" d="M143.1,60.5c-4.3,7.2-6.8,15.8-6.8,25.1c0,3.1,0.3,6,0.8,8.9C140.8,83.4,143.3,72.2,143.1,60.5z"/>
<path class="st11" d="M159,106c-4.5-5.3-7.3-12.5-7.3-20.4c0-12.7,7.1-23.5,17.2-27.8c-2.8-4.6-5-9.4-5.9-14.4
	c-7.7,3.5-14.3,9.6-18.9,17.2c0.1,11.7-2.3,22.9-6,34c1.1,5.9,3.2,11.4,6.1,16.3C148.9,108.5,153.9,107,159,106z"/>
<path class="st5" d="M200.1,127.6c8.1-4.4,14.6-11.5,18.7-20.3h-17.4c-2.6,2.9-5.7,5.3-9.2,6.9C192.5,119.6,195.6,124.1,200.1,127.6
	z"/>
<path d="M199.1,128.6c-4.5-3.5-7.6-8-7.9-13.4c-3.2,1.5-6.7,2.3-10.4,2.3c-0.7,0-1.5,0-2.2-0.1c-4.1,5.5-9.9,9-16.2,11.1
	c5.6,3,11.8,4.8,18.4,4.8C187.4,133.3,193.6,131.6,199.1,128.6z"/>
<path class="st9" d="M177.6,116.4c-6.9-0.6-13.1-4.1-17.6-9.4c-5.1,1-10.1,2.5-14.8,4.8c4,6.7,9.6,12.1,16.2,15.7
	C167.8,125.4,173.5,121.9,177.6,116.4z"/>
<path class="st6" d="M180.8,54.7c4.8,0,9.4,1.4,13.3,3.8c2.8-4.3,6.1-8.2,9.1-12.4c-6.5-4.6-14.1-7.2-22.4-7.2
	c-5.6,0-10.9,1.2-15.8,3.4c0.8,5.1,3.1,9.8,5.9,14.4C174,55.4,177.3,54.7,180.8,54.7z"/>
</svg>
