<?xml version="1.0" encoding="utf-8"?>
<!-- Generator: Adobe Illustrator 28.3.0, SVG Export Plug-In . SVG Version: 6.00 Build 0)  -->
<svg version="1.0" id="图层_1" xmlns="http://www.w3.org/2000/svg" xmlns:xlink="http://www.w3.org/1999/xlink" x="0px" y="0px"
	 viewBox="0 0 10.03 13.38" style="enable-background:new 0 0 10.03 13.38;" xml:space="preserve">
<style type="text/css">
	.st0{fill:#E71E21;}
	.st1{fill:#E61F73;}
	.st2{fill:#CC4292;}
	.st3{fill:#744598;}
	.st4{fill:#48459A;}
	.st5{fill:#2353A4;}
	.st6{fill:#2F71B9;}
	.st7{fill:#26BBE1;}
	.st8{fill:url(#SVGID_1_);}
</style>
<g>
	<path class="st0" d="M4.71,2.72H4.49c0,0.35-0.03,0.7-0.04,1.05c0.1,0,0.2,0,0.3,0C4.73,3.41,4.71,3.07,4.71,2.72z"/>
	<path class="st1" d="M4.45,3.9c-0.01,0.33-0.02,0.67-0.04,1c0.12,0,0.25,0,0.38,0c-0.02-0.33-0.02-0.67-0.04-1
		C4.65,3.9,4.55,3.9,4.45,3.9z"/>
	<path class="st2" d="M4.41,5.05c-0.02,0.33-0.04,0.67-0.07,1c0.17,0,0.34,0,0.52,0c-0.03-0.33-0.05-0.67-0.07-1
		C4.66,5.05,4.53,5.05,4.41,5.05z"/>
	<path class="st3" d="M4.85,6.19c-0.18,0-0.35,0-0.52,0c-0.02,0.25-0.03,0.5-0.06,0.76C4.27,7.03,4.26,7.11,4.25,7.19
		c0.23,0,0.46,0,0.69,0C4.94,7.11,4.92,7.03,4.91,6.95C4.89,6.69,4.88,6.44,4.85,6.19z"/>
	<path class="st4" d="M4.25,7.28c-0.04,0.33-0.07,0.67-0.12,1c0.31,0,0.63,0,0.94,0c-0.05-0.33-0.09-0.67-0.12-1
		C4.71,7.28,4.48,7.28,4.25,7.28z"/>
	<path class="st5" d="M4.12,8.4c-0.05,0.33-0.11,0.67-0.18,1c0.43,0,0.87,0,1.3,0c-0.07-0.33-0.13-0.67-0.18-1
		C4.75,8.4,4.44,8.4,4.12,8.4z"/>
	<path class="st6" d="M3.95,9.49c-0.07,0.33-0.15,0.67-0.26,1c0.63,0,1.2,0,1.81,0c-0.1-0.33-0.18-0.67-0.26-1
		C4.81,9.49,4.38,9.49,3.95,9.49z"/>
	<path class="st7" d="M3.7,10.6c-0.06,0.19-0.1,0.35-0.35,0.56h2.52c-0.24-0.16-0.3-0.37-0.35-0.56C4.9,10.6,4.34,10.6,3.7,10.6z"/>
	<g>
		<linearGradient id="SVGID_1_" gradientUnits="userSpaceOnUse" x1="4.5972" y1="10.3542" x2="4.5972" y2="2.0069">
			<stop  offset="0" style="stop-color:#3DBEED"/>
			<stop  offset="1" style="stop-color:#DC5310"/>
		</linearGradient>
		<polygon class="st8" points="4.13,3.1 4.6,2.91 5.06,3.1 4.6,2.01 		"/>
	</g>
</g>
</svg>
