<?xml version="1.0" encoding="utf-8"?>
<!-- Generator: Adobe Illustrator 28.3.0, SVG Export Plug-In . SVG Version: 6.00 Build 0)  -->
<svg version="1.1" id="图层_1" xmlns="http://www.w3.org/2000/svg" xmlns:xlink="http://www.w3.org/1999/xlink" x="0px" y="0px"
	 viewBox="0 0 2.5 9.2" style="enable-background:new 0 0 2.5 9.2;" xml:space="preserve">
<style type="text/css">
	.st0{fill:#E71E21;}
	.st1{fill:#E61F73;}
	.st2{fill:#CC4292;}
	.st3{fill:#744598;}
	.st4{fill:#48459A;}
	.st5{fill:#2353A4;}
	.st6{fill:#2F71B9;}
	.st7{fill:#26BBE1;}
	.st8{fill:url(#SVGID_1_);}
</style>
<g>
	<path class="st0" d="M1.4,0.7H1.1c0,0.3,0,0.7,0,1c0.1,0,0.2,0,0.3,0C1.4,1.4,1.4,1.1,1.4,0.7z"/>
	<path class="st1" d="M1.1,1.9c0,0.3,0,0.7,0,1c0.1,0,0.2,0,0.4,0c0-0.3,0-0.7,0-1C1.3,1.9,1.2,1.9,1.1,1.9z"/>
	<path class="st2" d="M1.1,3C1,3.4,1,3.7,1,4c0.2,0,0.3,0,0.5,0c0-0.3-0.1-0.7-0.1-1C1.3,3,1.2,3,1.1,3z"/>
	<path class="st3" d="M1.5,4.2c-0.2,0-0.3,0-0.5,0c0,0.2,0,0.5-0.1,0.8c0,0.1,0,0.2,0,0.2c0.2,0,0.5,0,0.7,0c0-0.1,0-0.2,0-0.2
		C1.5,4.7,1.5,4.4,1.5,4.2z"/>
	<path class="st4" d="M0.9,5.3c0,0.3-0.1,0.7-0.1,1c0.3,0,0.6,0,0.9,0c-0.1-0.3-0.1-0.7-0.1-1C1.4,5.3,1.1,5.3,0.9,5.3z"/>
	<path class="st5" d="M0.8,6.4c-0.1,0.3-0.1,0.7-0.2,1c0.4,0,0.9,0,1.3,0c-0.1-0.3-0.1-0.7-0.2-1C1.4,6.4,1.1,6.4,0.8,6.4z"/>
	<path class="st6" d="M0.6,7.5c-0.1,0.3-0.2,0.7-0.3,1c0.6,0,1.2,0,1.8,0C2.1,8.1,2,7.8,1.9,7.5C1.5,7.5,1,7.5,0.6,7.5z"/>
	<path class="st7" d="M0.4,8.6C0.3,8.8,0.3,8.9,0,9.2h2.5C2.3,9,2.2,8.8,2.2,8.6C1.6,8.6,1,8.6,0.4,8.6z"/>
	<g>
		
			<linearGradient id="SVGID_1_" gradientUnits="userSpaceOnUse" x1="1.2478" y1="2.6358" x2="1.2478" y2="10.9831" gradientTransform="matrix(1 0 0 -1 0 10.98)">
			<stop  offset="0" style="stop-color:#3DBEED"/>
			<stop  offset="1" style="stop-color:#DC5310"/>
		</linearGradient>
		<polygon class="st8" points="0.8,1.1 1.3,0.9 1.7,1.1 1.3,0 		"/>
	</g>
</g>
</svg>
